<?xml version="1.0" encoding="utf-8"?>
<!DOCTYPE svg PUBLIC "-//W3C//DTD SVG 1.1//EN" "http://www.w3.org/Graphics/SVG/1.1/DTD/svg11.dtd">
<svg version="1.1" id="Layer_1" xmlns="http://www.w3.org/2000/svg" xmlns:xlink="http://www.w3.org/1999/xlink" x="0px" y="0px"
	 width="770px" height="100px" viewBox="0 0 770 100" enable-background="new 0 0 770 100"
	 xml:space="preserve">
<g>
	<path fill="#cc2525" stroke="#8A0707" stroke-miterlimit="10" d="M18.053,2.436c1.3,0.7,6.6,8.601,8.7,12.101
		c0.6,1.1,3.1,2.8,3.4,3.4c0.6,1.5-1,5.9,0,6.9c2,2-0.6,1.4,0,5.2c0-0.2,1.5,0.9,1.7,1.7c1,3.8,3.5,14.601,1.8,22.401
		c-0.4,1.5-1.5,1.8-1.8,3.5c-0.4,3.601,0.8,7.301,0,10.301c-0.1,0.4-1.6,0.2-1.7,1.8c0,0.4,0.2,1.3,0,1.7
		c-0.7,1.7-1.1,2.7-1.7,5.201c-0.4,1.6-2.1,3.9-3.5,6.9c-0.3,0.6-1.3,0.2-1.7,1.7c-1.6,6.4-10.5,14.601-18.901,15.5
		c2-5.4,9.401-6.5,13.701-12.101c0.5-0.6-0.5-2.9,0-3.4c2.7-2.2,2.8-3.2,5.2-6.901c0.7-1.1,2.3-5.9,3.5-10.4
		c5.201-20.301,3.5-62.604-19.001-63.804c-3.4,2.3-1.4,7.3-1.7,10.4c-1.3,11.201-0.7,24.802,0,41.402c0.1,2.601,1.5,5.601,1.7,8.601
		c0,0.1-2.3,1.9-1.7,3.4c0.2,0.8,1.7-0.1,1.7,1.8c0,3.7-1.6,4.4-1.7,6.9c-0.1,1.3,1.9,1.7,1.7,3.4c-0.2,1.3-1.7,1.6-1.7,1.7
		c-0.6,5.7,1.4,11.001-1.7,15.601c-3.2-1.3-1.7-9.801-1.8-15.601c0-5.7,0.1-10.4,0-15.501c0-2.9,2.2-1.3,0-3.4
		c-0.4-0.5,0.3-7.201,0-10.401c-0.1-1.2-2.1-1.9-1.7-3.4c0.1-0.6,2,0,1.7-1.7c-0.3-2.3-3-3.601-1.7-8.701c0.2-0.8,1.7-2,1.7-1.7
		c0.2-2.8-1.7-2.9-1.7-5.2c0,0.4,1.7-0.7,1.7-1.7c0-1.6-2.1-3.3-1.7-8.601c0.4-5.5,2.4-10,3.5-15.501c0.3-1.8-2.5-3.1,0-5.2
		C8.752,2.536,13.753,0.236,18.053,2.436z"/>
	<path fill="#cc2525" stroke="#8A0707" stroke-miterlimit="10" d="M54.251,3.536c-3.9,2.3,3.5,10.101-2.2,13.901
		c-0.4,4.9,26.202-2.1,22.901,5.2c-4.1,3.3-17.501,0.2-22.901,0c-0.5,10.301,0.6,19.301,0,29.502c-0.2,2.8-1.8,3-2.2,5.2
		c-1.8,12.301,3.1,25.301-2.2,36.502c3,3.9,24.801,0.6,31.402,1.7c-0.2,7.4-28.302,0.1-31.402,5.2c-8.401-4.8-2.3-10.9-2.1-17.401
		c0.8-25.401,4.4-54.403,4.3-81.505c3.6-3.1,19.301,1.5,27.301,0C77.453,5.536,57.352,2.636,54.251,3.536z"/>
	<path fill="#cc2525" stroke="#8A0707" stroke-miterlimit="10" d="M88.051,19.737c0-1,1.5-2.7,1.6-4.7c0.2-3,3.1-5.2,3.2-7.9
		c0.1-1.7,3.8-3.6,4.8-6.4c1,0,2.1,0,3.1,0c6.1,0.6,8.4,11.201,9.601,17.501c1.1,5.9-0.6,12.401,1.6,17.401
		c-6.201-0.6-2.5-8.501-3.2-12.701c-0.7-3.8-1.9-7.6-3.2-11.101c-1.2-3.1-0.5-7.7-4.8-7.9c-7.801,1.9-8.901,9.701-9.5,15.801
		c-0.2,2.4-0.4,5.601,0,8c0,0.1,1.5,0.3,1.6,1.6c0.3,6.301,2.8,11.501,6.4,17.401c0.5,0.9,1.5-0.2,1.5,1.6c0.2,3.3,4.3,6,6.4,9.5
		c2.7,4.5,4.7,7.9,6.3,12.701c1.6,4.6,3.4,9.901,3.2,14.301c0-0.4-2.6,0.8-1.6,1.6c1.9,1.5,1.3,2.9,0,4.8c-0.4,0.6-1,4.3-1.6,4.701
		c-0.4,0.4-4.2,3.5-6.3,4.8c-12.401-2.9-11.301-19.401-11.101-34.902c4.3-1.2-1.2,7.5,3.2,6.3c-2.3,6.5-0.5,18.301,4.7,25.401
		c10.101-1,9.8-17.301,8-25.401c-0.5-2.1-3.1-3.5-3.2-6.3c-0.2-3.3-5.101-8.601-8-12.701c-0.8-1.3-3-3.1-3.1-4.8
		c-0.1-2-2.3-2-3.2-3.2c-0.4-0.5,0.5-2.7,0-3.1c-1.7-1.4-2.9-8-4.8-12.701c-0.2-0.6,0.5-2.8,0-3.2c-1.9-1.6,0.6-1.4,0-4.8
		C89.651,21.237,88.15,21.037,88.051,19.737z"/>
	<path fill="#cc2525" stroke="#8A0707" stroke-miterlimit="10" d="M136.75,3.536c-3.9,2.3,3.5,10.101-2.2,13.901
		c-0.4,4.9,26.202-2.1,22.901,5.2c-4.1,3.3-17.501,0.2-22.901,0c-0.5,10.301,0.6,19.301,0,29.502c-0.2,2.8-1.8,3-2.2,5.2
		c-1.8,12.301,3.1,25.301-2.2,36.502c3,3.9,24.801,0.6,31.402,1.7c-0.2,7.4-28.302,0.1-31.402,5.2c-8.401-4.8-2.3-10.9-2.1-17.401
		c0.8-25.401,4.4-54.403,4.3-81.505c3.6-3.1,19.301,1.5,27.301,0C159.952,5.536,139.851,2.636,136.75,3.536z"/>
	<path fill="#cc2525" stroke="#8A0707" stroke-miterlimit="10" d="M194.251,91.241c-0.2-0.1-1.6,0.1-1.6,0c-0.8-2.5-1-5.6-1.6-8
		c-1.3-4.8-1.8-10.8-3.2-15.801c0-0.1-1.3-0.6-1.6-1.6c-1.5-6-2.4-14.401-4.7-22.201c-0.6-2.1-1.3-5.3-3.2-6.4
		c-1.3,1.4-4.4,1-4.8,3.2c3.2,0.3,0,3.3,0,3.2c0.1,1.3,1.6,1.5,1.6,3.1c0,2.5-1.7,2.8-1.6,4.8c0.1,1.3,1.7,1.5,1.6,3.2
		c0,0-1.9,0.2-1.6,1.6c0.1,0.3,1.8,0,1.6,1.5c-0.2,1.4-1.5,1.6-1.6,3.2c-0.9,12.801,4.4,26.401,0,39.702c-3-1.2,0.1-2.9,0-4.8
		c-0.1-2.8-1.4-3.3-1.6-6.301c-0.5-13.201,1-25.901,0-39.702c0-0.4-2.2-1.6-1.6-3.2c0.3-0.6,1.7,0.2,1.6-1.6
		c0.1,0.4-2.6-0.7-1.6-1.5c2.6-2.1-0.8-5.601,0-12.701c0.1-0.5-0.3-3,0-3.2c2-1.6,0.1-0.6,0-6.4c0-6.7-1-15.801,1.6-20.601
		c6,3,13.201,4.8,17.501,9.5c0.8,12.301,2,21.201-7.9,25.402c4.8,21.101,14.101,37.702,15.801,61.903
		C191.551,100.642,196.251,92.841,194.251,91.241z M186.25,26.137c-1.6-7.8-1.8-14.5-4.7-17.501c-2.3-2.2-4.6-3.7-8-3.1
		c1.5,5,0.8,3.3,0,6.3c-1.5,6.101,1.4,12.401,1.6,14.301c0.2,1.6-1.5,1.2-1.6,1.6c-0.2,1,1.5,2,1.6,1.6c-0.4,2.1-2.4,3-1.6,6.301
		C179.75,34.338,182.95,30.138,186.25,26.137z"/>
	<path fill="#cc2525" stroke="#8A0707" stroke-miterlimit="10" d="M217.749,85.741c0,2.1-0.3,4.6,0,6.7c0.4,2.6,3,7.9-3.3,8.3
		c1.3-7.5-1.7-15.201,0-23.301c0.3-1.4,1.7-1.7,1.7-3.3c0,0.3-1.6-0.8-1.7-1.7c-0.3-5-0.1-16.301,0-23.302c0-3.4,1.7-4.5,1.7-6.7
		c0,0.4-1.6-0.7-1.7-1.6c-0.3-5.8,0.6-12.001,1.7-20.001c0.6-5,1.1-2.3,0-6.7c-0.6-2.2-0.1-6.201,1.6-8.301
		c-1.2-3.8-9.301-0.7-13.301-1.7c-0.3-1.4,0.7-1.6,1.7-1.6c6.6-2.9,17.501-1.4,26.602-1.7c-0.4,5.2-8.301,2.8-13.301,3.3
		C218.149,30.138,218.249,54.039,217.749,85.741z"/>
	<path fill="#cc2525" stroke="#8A0707" stroke-miterlimit="10" d="M274.748,2.436c2.9,7.9,1.6,18.201,1.6,26.702
		c0.1,12.401,1.1,24.201,0,36.602c-0.1,1,0.3,2.3,0,3.3c-0.2,0.8-1.7,2-1.6,1.7c-0.1,1.2,1.7,2.7,1.6,5c0,1.4-1.5,2.7-1.6,5
		c-0.1,1.8,2.4,6,1.6,11.601c-0.1,0.8-1.1,3.7-1.6,5c-1,2.2-0.1,3.7-3.4,3.4c-2.3-32.602,3.3-66.704,1.7-94.906
		c0-0.4-2.3-1.7-1.7-3.4c0.1-0.2,2.6-0.2,1.7-1.6C276.048,0.336,276.448,2.336,274.748,2.436z"/>
	<path fill="#cc2525" stroke="#8A0707" stroke-miterlimit="10" d="M289.248,19.737c0-1,1.5-2.7,1.6-4.7c0.2-3,3.1-5.2,3.2-7.9
		c0.1-1.7,3.8-3.6,4.8-6.4c1,0,2.1,0,3.1,0c6.1,0.6,8.4,11.201,9.601,17.501c1.1,5.9-0.6,12.401,1.6,17.401
		c-6.201-0.6-2.5-8.501-3.2-12.701c-0.7-3.8-1.9-7.6-3.2-11.101c-1.2-3.1-0.5-7.7-4.8-7.9c-7.801,1.9-8.901,9.701-9.5,15.801
		c-0.2,2.4-0.4,5.601,0,8c0,0.1,1.5,0.3,1.6,1.6c0.3,6.301,2.8,11.501,6.4,17.401c0.5,0.9,1.5-0.2,1.5,1.6c0.2,3.3,4.3,6,6.4,9.5
		c2.7,4.5,4.7,7.9,6.3,12.701c1.6,4.6,3.4,9.901,3.2,14.301c0-0.4-2.6,0.8-1.6,1.6c1.9,1.5,1.3,2.9,0,4.8c-0.4,0.6-1,4.3-1.6,4.701
		c-0.4,0.4-4.2,3.5-6.3,4.8c-12.401-2.9-11.301-19.401-11.101-34.902c4.3-1.2-1.2,7.5,3.2,6.3c-2.3,6.5-0.5,18.301,4.7,25.401
		c10.101-1,9.8-17.301,8-25.401c-0.5-2.1-3.1-3.5-3.2-6.3c-0.2-3.3-5.101-8.601-8-12.701c-0.8-1.3-3-3.1-3.1-4.8
		c-0.1-2-2.3-2-3.2-3.2c-0.4-0.5,0.5-2.7,0-3.1c-1.7-1.4-2.9-8-4.8-12.701c-0.2-0.6,0.5-2.8,0-3.2c-1.9-1.6,0.6-1.4,0-4.8
		C290.848,21.237,289.348,21.037,289.248,19.737z"/>
	<path fill="#cc2525" stroke="#8A0707" stroke-miterlimit="10" d="M328.948,88.841c0,0.3,1.7-0.6,1.7-1.7c0-1.6-1.9-3.7-1.7-6.7
		c0.2-3.101,1.5-3.601,1.7-6.801c0.3-6.8,0-13.601,0-20.401c0-1.4,1.8-1.6,1.7-3.3c0,0.2-1.6-0.7-1.7-1.7
		c-0.2-4.3,1.2-13.901,1.7-18.701c1.2-10.301-1.2-20.201,3.4-28.802c4.4,1.7,0.2,4.2,0,6.8c-0.5,6.201,0.4,13.401,0,20.301
		c-0.2,3.2-1.6,5.5-1.7,8.5c-0.6,12.301,0.1,24.802,0,35.602c0,0.4,0.3,3.101,0,3.4c-1.6,1.3,0.2,3.4,0,10.101
		c-0.1,3.7-1.4,4.4-1.7,6.8c0,0.1,2.3,1.9,1.7,3.4c-0.1,0.2-2.601,0.3-1.7,1.7c7.4,1.2,9.601-2.9,17.001-1.7
		c-3.2,5.4-12.001,5-20.401,5.1C329.048,96.642,328.848,92.941,328.948,88.841z"/>
	<path fill="#cc2525" stroke="#8A0707" stroke-miterlimit="10" d="M375.947,2.436c1.7,6.9,2.9,14.201,4.8,20.901
		c-0.3,3.5,1.3,5.1,4.8,4.8c-0.5,5.7-4.4,4-1.6,9.7c3.5,1.4-1.7,13.401,1.6,16.101c2.5,2,2.3,11.701,3.2,17.701
		c0.1,0.1,1.6,0.3,1.7,1.6c0,0.4-2.2,2.7-1.7,3.2c3.5,2.8,2.5,9.5,3.3,17.701c0-0.1,1.5,0.5,1.6,1.6c0.1,2.3,0.3,4.6-1.6,4.8
		c-3.2,0.8-2.5-1.4-3.3-3.2c-1.5-3.6-0.6-9.301-1.6-16.101c-2.2-16.101-5-34.302-8-48.303c-4.7,0.6-9.701,0.9-9.701,4.9
		c0,1.6,2.4,3.4,1.6,6.4c0,0-1.3,0.7-1.6,1.6c-0.6,2.5,0.4,5.5,0,8.101c-0.2,1.8-0.9,3.4-1.6,8c-1.5,10.301-2.1,18.401-4.8,29.002
		c-0.4,1.7,1.9,7.9-3.2,6.4c2.1-13.701,2.8-28.802,4.8-43.403c0.2-1.6-0.3-3.3,0-4.9c0.3-1.3,1.4-1.5,1.6-3.2
		c0.5-4.4-0.3-8.7,0-12.9c0.1-1.4,1.7-2.4,1.6-4.8c0-1.3-1.6-3.4-1.6-3.2c0.4-3,2.8-5.601,3.2-8c0.9-5.5-1.4-7.901,1.6-11.301
		c-0.4-2.6,1.6-2.8,1.7-4.8C374.547,0.536,375.647,1.136,375.947,2.436z M372.747,31.338c0.2-2.9,5.4-0.9,6.4-3.2
		c-0.6-3.5-1.9-6.9-3.2-11.201c-0.6-1.9,1.9-7.901-3.2-6.5c1,7.8-2.2,11.4,0,16.101C372.447,28.438,369.847,30.238,372.747,31.338z"
		/>
	<path fill="#cc2525" stroke="#8A0707" stroke-miterlimit="10" d="M427.447,84.041c-6.3-16.701-13.001-38.802-13.9-61.104
		c-5.301,3.101-2.7,12.101-2.801,16.701c-0.199,7-0.699,12.401,0,19.401c1.101,11.101,2.601,24.401,0,38.802
		c-5.3-5.601-2.7-14.901-2.8-22.201c-0.3-20.901,2.2-52.204-2.8-72.104c7.5-3.2,3.3,6.4,5.6,8.3c6.101,5,5.201,23.602,8.301,36.103
		c0.2,0.6,2.7,0.3,2.801,2.8c0.6,10.601,9.2,27.602,11.101,41.603c5.3-5.2,2.7-15.901,2.8-22.201c0.2-19.001-0.2-46.903,0-69.404
		c5,2,2.601,15.801,2.8,25.001c0.101,9.901-0.1,18.101,0,27.702c0,5.8,2.801,7.4,2.7,11.101c0-0.6-2.7,1.3-2.7,2.8
		c-0.399,7.701,0.301,21.701,0,33.302C428.748,101.842,429.647,89.941,427.447,84.041z"/>
	<path fill="#cc2525" stroke="#8A0707" stroke-miterlimit="10" d="M470.846,2.436c1.301,0.7,6.601,8.601,8.701,12.101
		c0.6,1.1,3.1,2.8,3.399,3.4c0.601,1.5-1,5.9,0,6.9c2.001,2-0.6,1.4,0,5.2c0-0.2,1.501,0.9,1.7,1.7c1,3.8,3.501,14.601,1.801,22.401
		c-0.4,1.5-1.5,1.8-1.801,3.5c-0.399,3.601,0.801,7.301,0,10.301c-0.1,0.4-1.6,0.2-1.7,1.8c0,0.4,0.2,1.3,0,1.7
		c-0.699,1.7-1.1,2.7-1.699,5.201c-0.4,1.6-2.101,3.9-3.501,6.9c-0.3,0.6-1.3,0.2-1.7,1.7c-1.6,6.4-10.5,14.601-18.9,15.5
		c2-5.4,9.4-6.5,13.7-12.101c0.5-0.6-0.5-2.9,0-3.4c2.7-2.2,2.801-3.2,5.2-6.901c0.7-1.1,2.301-5.9,3.501-10.4
		c5.2-20.301,3.5-62.604-19.002-63.804c-3.399,2.3-1.399,7.3-1.699,10.4c-1.301,11.201-0.7,24.802,0,41.402
		c0.1,2.601,1.5,5.601,1.699,8.601c0,0.1-2.3,1.9-1.699,3.4c0.199,0.8,1.699-0.1,1.699,1.8c0,3.7-1.6,4.4-1.699,6.9
		c-0.101,1.3,1.899,1.7,1.699,3.4c-0.199,1.3-1.699,1.6-1.699,1.7c-0.601,5.7,1.399,11.001-1.7,15.601
		c-3.2-1.3-1.7-9.801-1.801-15.601c0-5.7,0.101-10.4,0-15.501c0-2.9,2.2-1.3,0-3.4c-0.399-0.5,0.301-7.201,0-10.401
		c-0.1-1.2-2.1-1.9-1.7-3.4c0.101-0.6,2.001,0,1.7-1.7c-0.3-2.3-3-3.601-1.7-8.701c0.2-0.8,1.7-2,1.7-1.7c0.2-2.8-1.7-2.9-1.7-5.2
		c0,0.4,1.7-0.7,1.7-1.7c0-1.6-2.1-3.3-1.7-8.601c0.4-5.5,2.4-10,3.501-15.501c0.3-1.8-2.5-3.1,0-5.2
		C461.546,2.536,466.546,0.236,470.846,2.436z"/>
	<path fill="#cc2525" stroke="#8A0707" stroke-miterlimit="10" d="M523.845,19.737c0-1,1.5-2.7,1.6-4.7c0.2-3,3.101-5.2,3.2-7.9
		c0.101-1.7,3.801-3.6,4.801-6.4c1,0,2.1,0,3.1,0c6.101,0.6,8.401,11.201,9.601,17.501c1.101,5.9-0.6,12.401,1.601,17.401
		c-6.2-0.6-2.5-8.501-3.2-12.701c-0.7-3.8-1.9-7.6-3.2-11.101c-1.2-3.1-0.5-7.7-4.801-7.9c-7.8,1.9-8.9,9.701-9.5,15.801
		c-0.2,2.4-0.4,5.601,0,8c0,0.1,1.5,0.3,1.6,1.6c0.301,6.301,2.801,11.501,6.4,17.401c0.5,0.9,1.5-0.2,1.5,1.6
		c0.2,3.3,4.301,6,6.4,9.5c2.7,4.5,4.7,7.9,6.301,12.701c1.601,4.6,3.4,9.901,3.2,14.301c0-0.4-2.601,0.8-1.6,1.6
		c1.899,1.5,1.3,2.9,0,4.8c-0.4,0.6-1.001,4.3-1.601,4.701c-0.4,0.4-4.2,3.5-6.301,4.8c-12.4-2.9-11.3-19.401-11.101-34.902
		c4.301-1.2-1.2,7.5,3.2,6.3c-2.3,6.5-0.5,18.301,4.7,25.401c10.101-1,9.801-17.301,8.001-25.401c-0.5-2.1-3.101-3.5-3.2-6.3
		c-0.2-3.3-5.101-8.601-8.001-12.701c-0.8-1.3-3-3.1-3.1-4.8c-0.101-2-2.301-2-3.2-3.2c-0.4-0.5,0.5-2.7,0-3.1
		c-1.7-1.4-2.9-8-4.801-12.701c-0.199-0.6,0.5-2.8,0-3.2c-1.899-1.6,0.601-1.4,0-4.8C525.444,21.237,523.944,21.037,523.845,19.737z
		"/>
	<path fill="#cc2525" stroke="#8A0707" stroke-miterlimit="10" d="M579.744,100.642c-3.6-0.4-6.7-1.3-9.2-4.601
		c-0.6-0.8,0.7-4,0-4.7c-2.7-2.2-1.2-4.9-2.3-13.901c-0.601-4-2-4.9-2.4-9.201c-0.8-9.9,0.8-21.801,0-32.502
		c-0.7-10.4-2.3-22.701,0-34.802c5.2,0.3,1,9.9,2.4,13.901c2.3,19.501,0.6,48.003,4.6,69.604c1.101,5.9,0.101,10.401,4.601,13.901
		c8.2,1.2,12.001-2,13.9-7c2.7-28.202,2.601-59.204,2.4-90.405c5.801-1.2,2.5,3,2.301,2.3c3.5,10.701,3.5,39.803,2.3,58.004
		c-1.101,16.301-3,34.102-11.601,39.402C584.444,100.442,582.045,100.942,579.744,100.642z"/>
	<path fill="#cc2525" stroke="#8A0707" stroke-miterlimit="10" d="M615.644,2.436c2.9,7.9,1.601,18.201,1.601,26.702
		c0.1,12.401,1.1,24.201,0,36.602c-0.101,1,0.3,2.3,0,3.3c-0.2,0.8-1.7,2-1.601,1.7c-0.1,1.2,1.7,2.7,1.601,5
		c0,1.4-1.501,2.7-1.601,5c-0.1,1.8,2.4,6,1.601,11.601c-0.101,0.8-1.101,3.7-1.601,5c-1,2.2-0.1,3.7-3.4,3.4
		c-2.3-32.602,3.301-66.704,1.7-94.906c0-0.4-2.3-1.7-1.7-3.4c0.101-0.2,2.601-0.2,1.7-1.6
		C616.943,0.336,617.344,2.336,615.644,2.436z"/>
	<path fill="#cc2525" stroke="#8A0707" stroke-miterlimit="10" d="M660.746,40.138c-15.602-0.2,0.6-32.002-13.501-33.702
		c-15.602-1.8-11.4,19.001-13.501,33.702c-3,21.102-7.7,48.203,10.101,57.304c10.801,2.9,7-8.801,13.501-10.101
		c1.9-6-4.101-19.801,3.4-20.301c7.9,31.802-20.002,46.303-30.402,20.301c-0.399-1.2,1-6,0-6.801c-9.801-8,2.801-54.103,0-67.304
		c4.9-1.9,8.301-5.301,10.101-10.101c3-2.101,6.101-4.101,6.801,0C661.146,4.036,657.346,26.737,660.746,40.138z"/>
	<path fill="#cc2525" stroke="#8A0707" stroke-miterlimit="10" d="M677.942,2.436c2.9,7.9,1.601,18.201,1.601,26.702
		c0.1,12.401,1.1,24.201,0,36.602c-0.101,1,0.3,2.3,0,3.3c-0.2,0.8-1.7,2-1.601,1.7c-0.1,1.2,1.7,2.7,1.601,5
		c0,1.4-1.501,2.7-1.601,5c-0.1,1.8,2.4,6,1.601,11.601c-0.101,0.8-1.101,3.7-1.601,5c-1,2.2-0.1,3.7-3.4,3.4
		c-2.3-32.602,3.301-66.704,1.7-94.906c0-0.4-2.3-1.7-1.7-3.4c0.101-0.2,2.601-0.2,1.7-1.6
		C679.242,0.336,679.643,2.336,677.942,2.436z"/>
	<path fill="#cc2525" stroke="#8A0707" stroke-miterlimit="10" d="M710.043,2.436c1.301,0.7,6.601,8.601,8.701,12.101
		c0.6,1.1,3.1,2.8,3.399,3.4c0.601,1.5-1,5.9,0,6.9c2.001,2-0.6,1.4,0,5.2c0-0.2,1.501,0.9,1.7,1.7c1,3.8,3.501,14.601,1.801,22.401
		c-0.4,1.5-1.5,1.8-1.801,3.5c-0.399,3.601,0.801,7.301,0,10.301c-0.1,0.4-1.6,0.2-1.7,1.8c0,0.4,0.2,1.3,0,1.7
		c-0.699,1.7-1.1,2.7-1.699,5.201c-0.4,1.6-2.101,3.9-3.501,6.9c-0.3,0.6-1.3,0.2-1.7,1.7c-1.6,6.4-10.5,14.601-18.9,15.5
		c2-5.4,9.4-6.5,13.7-12.101c0.5-0.6-0.5-2.9,0-3.4c2.7-2.2,2.801-3.2,5.2-6.901c0.7-1.1,2.301-5.9,3.501-10.4
		c5.2-20.301,3.5-62.604-19.002-63.804c-3.399,2.3-1.399,7.3-1.699,10.4c-1.301,11.201-0.7,24.802,0,41.402
		c0.1,2.601,1.5,5.601,1.699,8.601c0,0.1-2.3,1.9-1.699,3.4c0.199,0.8,1.699-0.1,1.699,1.8c0,3.7-1.6,4.4-1.699,6.9
		c-0.101,1.3,1.899,1.7,1.699,3.4c-0.199,1.3-1.699,1.6-1.699,1.7c-0.601,5.7,1.399,11.001-1.7,15.601
		c-3.2-1.3-1.7-9.801-1.801-15.601c0-5.7,0.101-10.4,0-15.501c0-2.9,2.2-1.3,0-3.4c-0.399-0.5,0.301-7.201,0-10.401
		c-0.1-1.2-2.1-1.9-1.7-3.4c0.101-0.6,2.001,0,1.7-1.7c-0.3-2.3-3-3.601-1.7-8.701c0.2-0.8,1.7-2,1.7-1.7c0.2-2.8-1.7-2.9-1.7-5.2
		c0,0.4,1.7-0.7,1.7-1.7c0-1.6-2.1-3.3-1.7-8.601c0.4-5.5,2.4-10,3.501-15.501c0.3-1.8-2.5-3.1,0-5.2
		C700.743,2.536,705.743,0.236,710.043,2.436z"/>
	<path fill="#cc2525" stroke="#8A0707" stroke-miterlimit="10" d="M746.242,3.536c-3.9,2.3,3.5,10.101-2.2,13.901
		c-0.399,4.9,26.202-2.1,22.901,5.2c-4.1,3.3-17.501,0.2-22.901,0c-0.5,10.301,0.601,19.301,0,29.502c-0.2,2.8-1.8,3-2.2,5.2
		c-1.8,12.301,3.101,25.301-2.2,36.502c3,3.9,24.802,0.6,31.402,1.7c-0.2,7.4-28.302,0.1-31.402,5.2c-8.4-4.8-2.3-10.9-2.1-17.401
		c0.8-25.401,4.4-54.403,4.3-81.505c3.601-3.1,19.302,1.5,27.302,0C769.443,5.536,749.343,2.636,746.242,3.536z"/>
</g>
</svg>
