<?xml version="1.0" encoding="utf-8"?>
<!-- Generator: Adobe Illustrator 16.0.4, SVG Export Plug-In . SVG Version: 6.00 Build 0)  -->
<!DOCTYPE svg PUBLIC "-//W3C//DTD SVG 1.1//EN" "http://www.w3.org/Graphics/SVG/1.1/DTD/svg11.dtd">
<svg version="1.1" id="Layer_1" xmlns="http://www.w3.org/2000/svg" xmlns:xlink="http://www.w3.org/1999/xlink" x="0px" y="0px"
         width="771.012px" height="101.346px" viewBox="0 0 771.012 101.346" enable-background="new 0 0 771.012 101.346"
         xml:space="preserve">
<g>
        <path fill="#CC2527" stroke="#89181A" stroke-miterlimit="10" d="M18.041,2.435c1.299,0.699,6.595,8.594,8.694,12.092
                c0.6,1.099,3.098,2.798,3.398,3.398c0.6,1.499-0.999,5.896,0,6.896c1.999,1.999-0.6,1.399,0,5.197c0-0.2,1.499,0.899,1.699,1.699
                c0.999,3.798,3.498,14.59,1.798,22.386c-0.399,1.499-1.499,1.798-1.798,3.498c-0.4,3.598,0.799,7.295,0,10.293
                c-0.1,0.399-1.599,0.2-1.699,1.799c0,0.4,0.2,1.299,0,1.699c-0.7,1.699-1.099,2.698-1.699,5.197
                c-0.4,1.599-2.099,3.897-3.498,6.896c-0.3,0.6-1.299,0.2-1.699,1.699c-1.599,6.396-10.493,14.59-18.888,15.489
                c2-5.396,9.395-6.495,13.692-12.092c0.5-0.6-0.5-2.898,0-3.397c2.698-2.199,2.798-3.198,5.196-6.896
                c0.7-1.099,2.299-5.896,3.498-10.393c5.197-20.287,3.498-62.56-18.987-63.759c-3.398,2.298-1.399,7.295-1.699,10.393
                c-1.299,11.193-0.7,24.784,0,41.373c0.1,2.599,1.499,5.597,1.699,8.595c0,0.1-2.299,1.899-1.699,3.398
                c0.2,0.799,1.699-0.1,1.699,1.799c0,3.698-1.599,4.397-1.699,6.896c-0.1,1.299,1.899,1.699,1.699,3.397
                c-0.2,1.299-1.699,1.599-1.699,1.699c-0.6,5.696,1.399,10.993-1.699,15.59c-3.198-1.299-1.698-9.793-1.798-15.59
                c0-5.696,0.1-10.393,0-15.49c0-2.898,2.199-1.299,0-3.397c-0.4-0.5,0.3-7.195,0-10.394c-0.1-1.199-2.099-1.898-1.699-3.398
                c0.1-0.599,1.999,0,1.699-1.698c-0.3-2.299-2.999-3.598-1.699-8.695c0.2-0.8,1.699-1.999,1.699-1.699
                c0.2-2.798-1.699-2.898-1.699-5.197c0,0.4,1.699-0.7,1.699-1.699c0-1.599-2.099-3.298-1.699-8.595
                c0.4-5.496,2.398-9.994,3.498-15.49c0.3-1.798-2.498-3.098,0-5.196C8.747,2.535,13.744,0.236,18.041,2.435z"/>
        <path fill="#CC2527" stroke="#89181A" stroke-miterlimit="10" d="M54.213,3.534c-3.897,2.298,3.498,10.093-2.198,13.891
                c-0.4,4.897,26.183-2.099,22.885,5.196c-4.097,3.298-17.488,0.2-22.885,0c-0.5,10.293,0.6,19.288,0,29.481
                c-0.2,2.798-1.799,2.998-2.198,5.196c-1.799,12.292,3.098,25.284-2.199,36.476c2.998,3.898,24.784,0.6,31.379,1.699
                c-0.2,7.395-28.282,0.1-31.379,5.196c-8.395-4.796-2.299-10.893-2.099-17.388c0.799-25.384,4.397-54.365,4.297-81.448
                c3.597-3.098,19.287,1.499,27.282,0C77.399,5.533,57.312,2.634,54.213,3.534z"/>
        <path fill="#CC2527" stroke="#89181A" stroke-miterlimit="10" d="M87.989,19.724c0-1,1.499-2.699,1.599-4.697
                c0.2-2.998,3.098-5.196,3.198-7.895c0.099-1.699,3.797-3.598,4.797-6.396c0.999,0,2.099,0,3.098,0
                c6.096,0.6,8.395,11.193,9.594,17.489c1.1,5.896-0.6,12.392,1.599,17.389c-6.196-0.6-2.498-8.495-3.198-12.692
                c-0.7-3.797-1.899-7.595-3.198-11.093c-1.199-3.098-0.5-7.695-4.797-7.895c-7.795,1.899-8.895,9.694-9.494,15.79
                c-0.2,2.398-0.4,5.596,0,7.995c0,0.1,1.499,0.3,1.599,1.599c0.299,6.296,2.798,11.493,6.396,17.389
                c0.5,0.899,1.499-0.2,1.499,1.599c0.2,3.298,4.297,5.997,6.396,9.494c2.698,4.497,4.697,7.895,6.296,12.692
                c1.599,4.597,3.398,9.894,3.198,14.291c0-0.399-2.598,0.8-1.599,1.599c1.899,1.499,1.3,2.898,0,4.797
                c-0.399,0.6-0.999,4.297-1.599,4.697c-0.4,0.4-4.197,3.498-6.296,4.796c-12.392-2.897-11.293-19.387-11.093-34.877
                c4.297-1.199-1.199,7.495,3.198,6.296c-2.298,6.496-0.5,18.288,4.697,25.383c10.093-0.999,9.793-17.289,7.995-25.383
                c-0.5-2.099-3.098-3.498-3.198-6.296c-0.2-3.298-5.097-8.595-7.995-12.692c-0.8-1.299-2.999-3.098-3.098-4.797
                c-0.1-1.999-2.299-1.999-3.198-3.198c-0.4-0.5,0.5-2.698,0-3.098c-1.699-1.399-2.898-7.995-4.797-12.692
                c-0.2-0.6,0.5-2.798,0-3.198c-1.899-1.599,0.6-1.399,0-4.797C89.588,21.223,88.088,21.023,87.989,19.724z"/>
        <path fill="#CC2527" stroke="#89181A" stroke-miterlimit="10" d="M136.654,3.534c-3.897,2.298,3.498,10.093-2.199,13.891
                c-0.399,4.897,26.183-2.099,22.885,5.196c-4.097,3.298-17.489,0.2-22.885,0c-0.5,10.293,0.6,19.288,0,29.481
                c-0.199,2.798-1.798,2.998-2.198,5.196c-1.799,12.292,3.098,25.284-2.198,36.476c2.998,3.898,24.784,0.6,31.379,1.699
                c-0.2,7.395-28.282,0.1-31.379,5.196c-8.395-4.796-2.299-10.893-2.099-17.388c0.799-25.384,4.396-54.365,4.297-81.448
                c3.598-3.098,19.288,1.499,27.282,0C159.84,5.533,139.752,2.634,136.654,3.534z"/>
        <path fill="#CC2527" stroke="#89181A" stroke-miterlimit="10" d="M194.114,91.177c-0.2-0.1-1.599,0.1-1.599,0
                c-0.799-2.498-0.999-5.596-1.599-7.995c-1.299-4.797-1.799-10.793-3.198-15.79c0-0.1-1.299-0.6-1.599-1.599
                c-1.499-5.996-2.398-14.391-4.697-22.186c-0.6-2.099-1.299-5.296-3.198-6.396c-1.299,1.399-4.397,1-4.797,3.198
                c3.198,0.299,0,3.297,0,3.198c0.1,1.299,1.599,1.499,1.599,3.098c0,2.499-1.699,2.798-1.599,4.797
                c0.1,1.299,1.699,1.499,1.599,3.198c0,0-1.899,0.2-1.599,1.599c0.1,0.299,1.799,0,1.599,1.499c-0.2,1.399-1.499,1.599-1.599,3.198
                c-0.899,12.792,4.397,26.383,0,39.674c-2.998-1.199,0.1-2.897,0-4.796c-0.1-2.798-1.399-3.298-1.599-6.296
                c-0.5-13.191,1-25.883,0-39.674c0-0.4-2.199-1.599-1.599-3.198c0.299-0.6,1.699,0.2,1.599-1.599c0.1,0.399-2.598-0.7-1.599-1.499
                c2.598-2.099-0.799-5.597,0-12.692c0.1-0.5-0.3-2.998,0-3.198c1.999-1.599,0.1-0.6,0-6.396c0-6.695-1-15.79,1.599-20.586
                c5.997,2.998,13.191,4.797,17.489,9.494c0.8,12.292,1.999,21.187-7.895,25.384c4.797,21.086,14.091,37.675,15.79,61.859
                C191.416,100.572,196.113,92.776,194.114,91.177z M186.12,26.119c-1.599-7.794-1.799-14.49-4.697-17.488
                c-2.298-2.199-4.597-3.698-7.995-3.098c1.499,4.997,0.799,3.298,0,6.296c-1.499,6.096,1.399,12.392,1.599,14.291
                c0.2,1.599-1.499,1.2-1.599,1.599c-0.2,1,1.499,1.999,1.599,1.599c-0.4,2.099-2.398,2.998-1.599,6.296
                C179.624,34.314,182.821,30.117,186.12,26.119z"/>
        <path fill="#CC2527" stroke="#89181A" stroke-miterlimit="10" d="M217.596,85.681c0,2.099-0.3,4.597,0,6.695
                c0.399,2.599,2.998,7.895-3.298,8.294c1.299-7.495-1.699-15.19,0-23.285c0.299-1.399,1.699-1.699,1.699-3.298
                c0,0.3-1.599-0.799-1.699-1.699c-0.3-4.997-0.1-16.29,0-23.285c0-3.397,1.699-4.497,1.699-6.695c0,0.399-1.599-0.7-1.699-1.599
                c-0.3-5.796,0.6-11.993,1.699-19.987c0.6-4.997,1.1-2.298,0-6.695c-0.6-2.199-0.1-6.196,1.599-8.295
                c-1.199-3.797-9.294-0.699-13.292-1.699c-0.3-1.399,0.699-1.599,1.699-1.599c6.595-2.898,17.489-1.399,26.583-1.699
                c-0.4,5.196-8.295,2.798-13.291,3.298C217.995,30.117,218.095,54.001,217.596,85.681z"/>
        <path fill="#CC2527" stroke="#89181A" stroke-miterlimit="10" d="M274.555,2.435c2.898,7.895,1.598,18.188,1.598,26.683
                c0.101,12.392,1.1,24.184,0,36.576c-0.099,1,0.301,2.299,0,3.298c-0.199,0.799-1.699,1.999-1.598,1.699
                c-0.101,1.199,1.699,2.698,1.598,4.997c0,1.399-1.499,2.698-1.598,4.997c-0.101,1.799,2.398,5.997,1.598,11.593
                c-0.099,0.799-1.099,3.697-1.598,4.997c-1,2.199-0.101,3.698-3.398,3.397c-2.298-32.578,3.297-66.656,1.699-94.838
                c0-0.4-2.298-1.699-1.699-3.397c0.099-0.2,2.599-0.2,1.699-1.599C275.854,0.336,276.253,2.335,274.555,2.435z"/>
        <path fill="#CC2527" stroke="#89181A" stroke-miterlimit="10" d="M289.044,19.724c0-1,1.499-2.699,1.598-4.697
                c0.2-2.998,3.099-5.196,3.198-7.895c0.1-1.699,3.798-3.598,4.797-6.396c0.999,0,2.098,0,3.097,0
                c6.097,0.6,8.395,11.193,9.594,17.489c1.1,5.896-0.599,12.392,1.6,17.389c-6.197-0.6-2.498-8.495-3.198-12.692
                c-0.7-3.797-1.899-7.595-3.198-11.093c-1.199-3.098-0.5-7.695-4.797-7.895c-7.795,1.899-8.894,9.694-9.493,15.79
                c-0.2,2.398-0.4,5.596,0,7.995c0,0.1,1.499,0.3,1.599,1.599c0.299,6.296,2.798,11.493,6.396,17.389
                c0.5,0.899,1.499-0.2,1.499,1.599c0.2,3.298,4.298,5.997,6.396,9.494c2.698,4.497,4.697,7.895,6.296,12.692
                c1.599,4.597,3.398,9.894,3.198,14.291c0-0.399-2.599,0.8-1.599,1.599c1.899,1.499,1.3,2.898,0,4.797
                c-0.399,0.6-1,4.297-1.599,4.697c-0.4,0.4-4.197,3.498-6.296,4.796c-12.392-2.897-11.293-19.387-11.093-34.877
                c4.298-1.199-1.199,7.495,3.198,6.296c-2.298,6.496-0.5,18.288,4.697,25.383c10.093-0.999,9.794-17.289,7.995-25.383
                c-0.5-2.099-3.098-3.498-3.198-6.296c-0.2-3.298-5.097-8.595-7.996-12.692c-0.799-1.299-2.998-3.098-3.097-4.797
                c-0.101-1.999-2.299-1.999-3.198-3.198c-0.4-0.5,0.5-2.698,0-3.098c-1.699-1.399-2.898-7.995-4.798-12.692
                c-0.2-0.6,0.5-2.798,0-3.198c-1.899-1.599,0.601-1.399,0-4.797C290.643,21.223,289.144,21.023,289.044,19.724z"/>
        <path fill="#CC2527" stroke="#89181A" stroke-miterlimit="10" d="M328.715,88.779c0,0.299,1.699-0.6,1.699-1.699
                c0-1.599-1.898-3.698-1.699-6.695c0.2-3.099,1.499-3.598,1.699-6.796c0.299-6.796,0-13.591,0-20.387
                c0-1.399,1.799-1.599,1.699-3.298c0,0.2-1.598-0.7-1.699-1.699c-0.2-4.297,1.199-13.891,1.699-18.688
                c1.2-10.293-1.199-20.187,3.398-28.781c4.397,1.699,0.2,4.197,0,6.795c-0.5,6.196,0.4,13.392,0,20.287
                c-0.2,3.198-1.6,5.497-1.699,8.495c-0.599,12.292,0.1,24.784,0,35.577c0,0.4,0.3,3.099,0,3.398c-1.599,1.299,0.2,3.398,0,10.094
                c-0.1,3.697-1.399,4.397-1.699,6.795c0,0.1,2.298,1.899,1.699,3.398c-0.1,0.2-2.599,0.3-1.699,1.699
                c7.396,1.2,9.594-2.898,16.989-1.699c-3.198,5.396-11.993,4.997-20.387,5.096C328.816,96.574,328.616,92.876,328.715,88.779z"/>
        <path fill="#CC2527" stroke="#89181A" stroke-miterlimit="10" d="M375.682,2.435c1.699,6.896,2.898,14.19,4.796,20.886
                c-0.299,3.498,1.3,5.097,4.798,4.797c-0.5,5.696-4.397,3.998-1.6,9.693c3.499,1.399-1.699,13.392,1.6,16.09
                c2.498,1.999,2.298,11.692,3.198,17.688c0.1,0.1,1.599,0.3,1.699,1.599c0,0.4-2.198,2.698-1.699,3.198
                c3.498,2.798,2.498,9.494,3.297,17.688c0-0.1,1.499,0.5,1.6,1.599c0.1,2.298,0.299,4.597-1.6,4.797
                c-3.198,0.799-2.498-1.399-3.297-3.198c-1.499-3.597-0.6-9.294-1.6-16.089c-2.199-16.09-4.997-34.278-7.994-48.269
                c-4.697,0.6-9.694,0.899-9.694,4.896c0,1.599,2.398,3.398,1.6,6.396c0,0-1.299,0.7-1.6,1.599c-0.599,2.499,0.4,5.497,0,8.095
                c-0.199,1.799-0.899,3.398-1.599,7.995c-1.499,10.293-2.099,18.388-4.797,28.981c-0.399,1.699,1.899,7.895-3.198,6.396
                c2.099-13.691,2.799-28.781,4.797-43.372c0.2-1.599-0.3-3.298,0-4.897c0.299-1.299,1.399-1.499,1.599-3.198
                c0.5-4.397-0.3-8.694,0-12.892c0.1-1.399,1.699-2.398,1.599-4.797c0-1.299-1.599-3.398-1.599-3.198
                c0.4-2.999,2.798-5.597,3.198-7.995c0.9-5.497-1.398-7.896,1.6-11.293c-0.4-2.598,1.598-2.798,1.699-4.797
                C374.283,0.536,375.383,1.135,375.682,2.435z M372.484,31.316c0.2-2.898,5.396-0.9,6.396-3.198
                c-0.6-3.498-1.899-6.896-3.198-11.192c-0.6-1.899,1.899-7.896-3.198-6.496c1,7.795-2.199,11.392,0,16.09
                C372.185,28.418,369.586,30.217,372.484,31.316z"/>
        <path fill="#CC2527" stroke="#89181A" stroke-miterlimit="10" d="M427.146,83.982c-6.296-16.689-12.992-38.775-13.891-61.061
                c-5.298,3.098-2.698,12.092-2.799,16.689c-0.199,6.996-0.699,12.392,0,19.388c1.1,11.093,2.599,24.384,0,38.775
                c-5.296-5.597-2.698-14.891-2.798-22.186c-0.3-20.887,2.198-52.167-2.798-72.054c7.495-3.198,3.297,6.396,5.596,8.294
                c6.096,4.997,5.197,23.585,8.295,36.077c0.199,0.599,2.698,0.299,2.799,2.798c0.599,10.593,9.193,27.582,11.093,41.573
                c5.296-5.197,2.698-15.89,2.798-22.186c0.199-18.988-0.2-46.87,0-69.355c4.996,1.999,2.599,15.79,2.798,24.984
                c0.1,9.894-0.1,18.088,0,27.682c0,5.796,2.798,7.395,2.698,11.093c0-0.599-2.698,1.299-2.698,2.798
                c-0.399,7.695,0.3,21.686,0,33.279C428.446,101.771,429.345,89.878,427.146,83.982z"/>
        <path fill="#CC2527" stroke="#89181A" stroke-miterlimit="10" d="M470.514,2.435c1.3,0.699,6.596,8.594,8.695,12.092
                c0.599,1.099,3.098,2.798,3.396,3.398c0.601,1.499-0.999,5.896,0,6.896c2,1.999-0.599,1.399,0,5.197c0-0.2,1.5,0.899,1.699,1.699
                c0.999,3.798,3.499,14.59,1.8,22.386c-0.4,1.499-1.499,1.798-1.8,3.498c-0.399,3.598,0.801,7.295,0,10.293
                c-0.1,0.399-1.599,0.2-1.699,1.799c0,0.4,0.2,1.299,0,1.699c-0.698,1.699-1.099,2.698-1.697,5.197
                c-0.4,1.599-2.1,3.897-3.499,6.896c-0.3,0.6-1.299,0.2-1.699,1.699c-1.598,6.396-10.492,14.59-18.887,15.489
                c1.999-5.396,9.394-6.495,13.69-12.092c0.5-0.6-0.499-2.898,0-3.397c2.698-2.199,2.799-3.198,5.196-6.896
                c0.7-1.099,2.3-5.896,3.499-10.393c5.196-20.287,3.497-62.56-18.988-63.759c-3.397,2.298-1.398,7.295-1.698,10.393
                c-1.3,11.193-0.7,24.784,0,41.373c0.1,2.599,1.499,5.597,1.698,8.595c0,0.1-2.299,1.899-1.698,3.398
                c0.199,0.799,1.698-0.1,1.698,1.799c0,3.698-1.599,4.397-1.698,6.896c-0.101,1.299,1.897,1.699,1.698,3.397
                c-0.199,1.299-1.698,1.599-1.698,1.699c-0.601,5.696,1.398,10.993-1.699,15.59c-3.198-1.299-1.699-9.793-1.8-15.59
                c0-5.696,0.101-10.393,0-15.49c0-2.898,2.199-1.299,0-3.397c-0.398-0.5,0.301-7.195,0-10.394c-0.1-1.199-2.098-1.898-1.698-3.398
                c0.1-0.599,1.999,0,1.698-1.698c-0.299-2.299-2.997-3.598-1.698-8.695c0.199-0.8,1.698-1.999,1.698-1.699
                c0.2-2.798-1.698-2.898-1.698-5.197c0,0.4,1.698-0.7,1.698-1.699c0-1.599-2.098-3.298-1.698-8.595
                c0.399-5.496,2.398-9.994,3.498-15.49c0.3-1.798-2.498-3.098,0-5.196C461.221,2.535,466.217,0.236,470.514,2.435z"/>
        <path fill="#CC2527" stroke="#89181A" stroke-miterlimit="10" d="M523.476,19.724c0-1,1.499-2.699,1.599-4.697
                c0.2-2.998,3.099-5.196,3.197-7.895c0.101-1.699,3.799-3.598,4.798-6.396c0.999,0,2.098,0,3.098,0
                c6.096,0.6,8.396,11.193,9.594,17.489c1.1,5.896-0.6,12.392,1.6,17.389c-6.196-0.6-2.499-8.495-3.198-12.692
                c-0.7-3.797-1.899-7.595-3.198-11.093c-1.199-3.098-0.499-7.695-4.797-7.895c-7.795,1.899-8.895,9.694-9.493,15.79
                c-0.2,2.398-0.4,5.596,0,7.995c0,0.1,1.499,0.3,1.598,1.599c0.301,6.296,2.799,11.493,6.396,17.389
                c0.499,0.899,1.499-0.2,1.499,1.599c0.2,3.298,4.298,5.997,6.396,9.494c2.698,4.497,4.697,7.895,6.296,12.692
                c1.6,4.597,3.398,9.894,3.198,14.291c0-0.399-2.599,0.8-1.599,1.599c1.898,1.499,1.299,2.898,0,4.797c-0.399,0.6-1,4.297-1.6,4.697
                c-0.399,0.4-4.196,3.498-6.296,4.796c-12.392-2.897-11.292-19.387-11.093-34.877c4.298-1.199-1.199,7.495,3.198,6.296
                c-2.299,6.496-0.5,18.288,4.696,25.383c10.094-0.999,9.794-17.289,7.996-25.383c-0.5-2.099-3.099-3.498-3.198-6.296
                c-0.2-3.298-5.097-8.595-7.995-12.692c-0.8-1.299-2.998-3.098-3.098-4.797c-0.101-1.999-2.299-1.999-3.198-3.198
                c-0.399-0.5,0.5-2.698,0-3.098c-1.698-1.399-2.898-7.995-4.797-12.692c-0.199-0.6,0.499-2.798,0-3.198
                c-1.898-1.599,0.6-1.399,0-4.797C525.074,21.223,523.575,21.023,523.476,19.724z"/>
        <path fill="#CC2527" stroke="#89181A" stroke-miterlimit="10" d="M579.335,100.572c-3.597-0.4-6.695-1.3-9.193-4.598
                c-0.599-0.799,0.7-3.997,0-4.697c-2.698-2.199-1.199-4.897-2.298-13.891c-0.601-3.997-1.999-4.897-2.399-9.194
                c-0.799-9.893,0.8-21.786,0-32.479c-0.699-10.393-2.298-22.685,0-34.777c5.197,0.299,1,9.893,2.399,13.891
                c2.298,19.487,0.599,47.969,4.596,69.555c1.101,5.896,0.101,10.394,4.598,13.891c8.194,1.199,11.992-1.999,13.891-6.996
                c2.698-28.182,2.599-59.162,2.398-90.341c5.797-1.2,2.499,2.998,2.3,2.298c3.497,10.693,3.497,39.775,2.298,57.963
                c-1.1,16.289-2.998,34.078-11.593,39.375C584.032,100.372,581.635,100.871,579.335,100.572z"/>
        <path fill="#CC2527" stroke="#89181A" stroke-miterlimit="10" d="M615.21,2.435c2.897,7.895,1.599,18.188,1.599,26.683
                c0.1,12.392,1.1,24.184,0,36.576c-0.101,1,0.3,2.299,0,3.298c-0.2,0.799-1.698,1.999-1.599,1.699
                c-0.1,1.199,1.698,2.698,1.599,4.997c0,1.399-1.5,2.698-1.599,4.997c-0.1,1.799,2.398,5.997,1.599,11.593
                c-0.101,0.799-1.1,3.697-1.599,4.997c-1,2.199-0.1,3.698-3.398,3.397c-2.298-32.578,3.299-66.656,1.699-94.838
                c0-0.4-2.299-1.699-1.699-3.397c0.101-0.2,2.599-0.2,1.699-1.599C616.509,0.336,616.908,2.335,615.21,2.435z"/>
        <path fill="#CC2527" stroke="#89181A" stroke-miterlimit="10" d="M660.28,40.11c-15.591-0.2,0.6-31.979-13.491-33.678
                c-15.591-1.799-11.393,18.988-13.492,33.678c-2.997,21.087-7.694,48.169,10.094,57.263c10.793,2.898,6.995-8.794,13.491-10.093
                c1.899-5.997-4.098-19.788,3.398-20.287c7.895,31.779-19.988,46.27-30.381,20.287c-0.399-1.199,0.999-5.997,0-6.796
                c-9.794-7.995,2.799-54.065,0-67.256c4.896-1.899,8.295-5.297,10.094-10.094c2.997-2.099,6.096-4.098,6.796,0
                C660.68,4.034,656.882,26.719,660.28,40.11z"/>
        <path fill="#CC2527" stroke="#89181A" stroke-miterlimit="10" d="M677.464,2.435c2.898,7.895,1.6,18.188,1.6,26.683
                c0.1,12.392,1.1,24.184,0,36.576c-0.101,1,0.3,2.299,0,3.298c-0.199,0.799-1.698,1.999-1.6,1.699
                c-0.099,1.199,1.699,2.698,1.6,4.997c0,1.399-1.5,2.698-1.6,4.997c-0.099,1.799,2.399,5.997,1.6,11.593
                c-0.101,0.799-1.1,3.697-1.6,4.997c-0.999,2.199-0.099,3.698-3.397,3.397c-2.298-32.578,3.299-66.656,1.699-94.838
                c0-0.4-2.299-1.699-1.699-3.397c0.101-0.2,2.599-0.2,1.699-1.599C678.764,0.336,679.163,2.335,677.464,2.435z"/>
        <path fill="#CC2527" stroke="#89181A" stroke-miterlimit="10" d="M709.542,2.435c1.3,0.699,6.597,8.594,8.695,12.092
                c0.6,1.099,3.098,2.798,3.397,3.398c0.6,1.499-1,5.896,0,6.896c1.999,1.999-0.6,1.399,0,5.197c0-0.2,1.499,0.899,1.698,1.699
                c1,3.798,3.499,14.59,1.8,22.386c-0.4,1.499-1.499,1.798-1.8,3.498c-0.398,3.598,0.801,7.295,0,10.293
                c-0.1,0.399-1.598,0.2-1.698,1.799c0,0.4,0.199,1.299,0,1.699c-0.699,1.699-1.1,2.698-1.698,5.197
                c-0.4,1.599-2.1,3.897-3.499,6.896c-0.299,0.6-1.299,0.2-1.698,1.699c-1.599,6.396-10.493,14.59-18.888,15.489
                c1.999-5.396,9.394-6.495,13.69-12.092c0.5-0.6-0.499-2.898,0-3.397c2.698-2.199,2.799-3.198,5.197-6.896
                c0.699-1.099,2.299-5.896,3.498-10.393c5.196-20.287,3.498-62.56-18.988-63.759c-3.397,2.298-1.398,7.295-1.698,10.393
                c-1.3,11.193-0.7,24.784,0,41.373c0.1,2.599,1.499,5.597,1.698,8.595c0,0.1-2.299,1.899-1.698,3.398
                c0.199,0.799,1.698-0.1,1.698,1.799c0,3.698-1.599,4.397-1.698,6.896c-0.101,1.299,1.898,1.699,1.698,3.397
                c-0.199,1.299-1.698,1.599-1.698,1.699c-0.601,5.696,1.398,10.993-1.699,15.59c-3.197-1.299-1.699-9.793-1.8-15.59
                c0-5.696,0.101-10.393,0-15.49c0-2.898,2.199-1.299,0-3.397c-0.398-0.5,0.301-7.195,0-10.394c-0.099-1.199-2.098-1.898-1.698-3.398
                c0.101-0.599,1.999,0,1.698-1.698c-0.299-2.299-2.997-3.598-1.698-8.695c0.2-0.8,1.698-1.999,1.698-1.699
                c0.2-2.798-1.698-2.898-1.698-5.197c0,0.4,1.698-0.7,1.698-1.699c0-1.599-2.098-3.298-1.698-8.595
                c0.399-5.496,2.398-9.994,3.498-15.49c0.3-1.798-2.498-3.098,0-5.196C700.249,2.535,705.245,0.236,709.542,2.435z"/>
        <path fill="#CC2527" stroke="#89181A" stroke-miterlimit="10" d="M745.716,3.534c-3.897,2.298,3.498,10.093-2.198,13.891
                c-0.399,4.897,26.184-2.099,22.885,5.196c-4.097,3.298-17.488,0.2-22.885,0c-0.5,10.293,0.6,19.288,0,29.481
                c-0.2,2.798-1.799,2.998-2.199,5.196c-1.798,12.292,3.099,25.284-2.198,36.476c2.998,3.898,24.784,0.6,31.38,1.699
                c-0.2,7.395-28.281,0.1-31.38,5.196c-8.395-4.796-2.298-10.893-2.099-17.388c0.8-25.384,4.397-54.365,4.297-81.448
                c3.599-3.098,19.288,1.499,27.283,0C768.9,5.533,748.814,2.634,745.716,3.534z"/>
</g>
</svg>
